<svg xmlns="http://www.w3.org/2000/svg" width="117" height="40" fill="none" viewBox="0 0 117 40">
  <path fill="#C4C4C4" fill-rule="evenodd" d="M10.878 4.448a2.962 2.962 0 1 0 .002 5.924h2.963V7.41a2.965 2.965 0 0 0-2.965-2.963c.002 0 .002 0 0 0Zm0 7.9h-7.9a2.963 2.963 0 0 0 0 5.926h7.9a2.963 2.963 0 1 0 0-5.926Zm18.765 2.962a2.963 2.963 0 0 0-5.927 0v2.963h2.963a2.963 2.963 0 0 0 2.964-2.963Zm-7.901 0v-7.9a2.963 2.963 0 0 0-5.925 0v7.9a2.963 2.963 0 1 0 5.925 0ZM18.78 34.075a2.963 2.963 0 1 0 0-5.925h-2.963v2.963a2.964 2.964 0 0 0 2.963 2.962Zm0-7.902h7.9a2.963 2.963 0 0 0 .002-5.926h-7.9a2.963 2.963 0 0 0-.002 5.926ZM.016 23.21a2.963 2.963 0 0 0 5.926 0v-2.962H2.979a2.963 2.963 0 0 0-2.963 2.963Zm7.9 0v7.901a2.963 2.963 0 0 0 5.925.002v-7.9a2.963 2.963 0 0 0-5.925-.002Z" clip-rule="evenodd"/>
  <path fill="#C4C4C4" d="m38.35 25.794 2.808-1.636c1.234 1.81 2.839 2.716 4.814 2.716.967 0 1.728-.185 2.284-.556.576-.39.864-.905.864-1.543 0-.514-.236-.967-.71-1.358a4.597 4.597 0 0 0-1.45-.864c-.515-.206-1.286-.473-2.315-.802a6.249 6.249 0 0 0-.401-.124 22.093 22.093 0 0 1-1.883-.71 12.41 12.41 0 0 1-1.574-.956 4.062 4.062 0 0 1-1.265-1.512c-.288-.618-.432-1.328-.432-2.13 0-1.564.658-2.819 1.975-3.765 1.317-.947 2.953-1.42 4.907-1.42 1.461 0 2.84.391 4.136 1.173 1.296.761 2.263 1.739 2.9 2.932l-2.592 1.574c-1.214-1.667-2.685-2.5-4.413-2.5-.946 0-1.677.195-2.191.586a1.76 1.76 0 0 0-.74 1.482c0 .514.215.977.647 1.389.453.39.916.678 1.39.864.472.185 1.141.421 2.005.71.226.061.391.113.494.154C51.27 20.67 53.1 22.44 53.1 24.806c0 1.46-.617 2.706-1.851 3.734-1.214 1.009-2.943 1.513-5.185 1.513-1.728 0-3.272-.381-4.63-1.142-1.337-.762-2.366-1.8-3.086-3.117Zm18.146 3.703V4.283h3.889v25.214h-3.889Zm11.357-5c0 .659.258 1.214.772 1.667.535.432 1.234.648 2.099.648 1.234 0 2.283-.411 3.147-1.234.885-.823 1.328-1.904 1.328-3.24V20.7c-.947.227-2.089.443-3.426.648-2.613.412-3.92 1.461-3.92 3.148Zm-3.95.34c0-3.354 2.49-5.401 7.469-6.142 1.81-.267 3.086-.514 3.827-.74v-.957c0-.864-.31-1.543-.926-2.037-.617-.494-1.44-.74-2.47-.74-1.954 0-3.641.802-5.06 2.407l-2.377-2.037a9.655 9.655 0 0 1 3.302-2.531 9.364 9.364 0 0 1 4.074-.926c2.654 0 4.547.648 5.679 1.944 1.131 1.276 1.697 3.066 1.697 5.37v11.05h-3.796v-2.223c-.37.761-1.018 1.42-1.944 1.975-.906.535-1.975.803-3.21.803-1.955 0-3.487-.484-4.598-1.45-1.111-.968-1.667-2.223-1.667-3.766Zm18.209-4.228c0-2.86.76-5.154 2.284-6.882 1.543-1.729 3.528-2.593 5.956-2.593 1.77 0 3.26.535 4.475 1.605 1.214 1.07 1.975 2.294 2.284 3.673l-3.334.925a4.58 4.58 0 0 0-1.265-2.006 2.96 2.96 0 0 0-2.13-.864c-1.337 0-2.386.587-3.147 1.76-.74 1.172-1.111 2.633-1.111 4.382 0 1.934.4 3.436 1.203 4.506.803 1.07 1.821 1.605 3.056 1.605.905 0 1.697-.31 2.376-.926.7-.638 1.183-1.358 1.45-2.16l3.334.956c-.391 1.44-1.245 2.716-2.562 3.827-1.317 1.09-2.86 1.636-4.63 1.636-2.427 0-4.412-.854-5.956-2.562-1.522-1.728-2.283-4.022-2.283-6.882Zm18.363 8.888V4.283h3.888v14.505l6.327-7.098h4.907l-6.574 7.252 6.975 10.555h-4.567l-4.938-7.808-2.13 2.346v5.462h-3.888Z"/>
</svg>
