<svg width="117" height="29" viewBox="0 0 117 29" fill="none" xmlns="http://www.w3.org/2000/svg">
<path d="M110.61 0H94.9198C91.3905 0 88.5294 2.86106 88.5294 6.39035V22.0802C88.5294 25.6095 91.3905 28.4706 94.9198 28.4706H110.61C114.139 28.4706 117 25.6095 117 22.0802V6.39035C117 2.86106 114.139 0 110.61 0Z" fill="#F9F9F9"/>
<path d="M99.4397 12.3151H97.1616V18.9866H99.4397V12.3151Z" fill="#646464"/>
<path d="M99.0567 9.20164C98.8396 9.07017 98.5844 9 98.3234 9C98.1493 9 97.9768 9.03124 97.816 9.09194C97.6552 9.15264 97.5092 9.24159 97.3864 9.35367C97.2636 9.46576 97.1664 9.59878 97.1005 9.74507C97.0345 9.89136 97.0011 10.048 97.0021 10.2061C97.0036 10.443 97.0824 10.6742 97.2285 10.8705C97.3746 11.0668 97.5814 11.2194 97.823 11.3091C98.0646 11.3988 98.33 11.4216 98.5858 11.3745C98.8416 11.3275 99.0763 11.2127 99.2604 11.0448C99.4444 10.8768 99.5695 10.6631 99.6199 10.4306C99.6702 10.1982 99.6436 9.95744 99.5434 9.73872C99.4432 9.51999 99.2738 9.3331 99.0567 9.20164Z" fill="#646464"/>
<path d="M103.097 12.3147H100.902L100.894 19H103.172V15.6987C103.172 14.8303 103.355 13.9895 104.539 13.9895C105.724 13.9895 105.724 14.9888 105.724 15.7607V18.9862H108.002V15.3265C108.002 13.5277 107.539 12.1493 105.261 12.1493C104.827 12.1339 104.396 12.2258 104.015 12.4151C103.634 12.6045 103.316 12.8842 103.097 13.2245V12.3147Z" fill="#646464"/>
<path d="M24.9118 0H3.55882C1.59613 0 0 1.59613 0 3.55882V24.9118C0 26.8745 1.59613 28.4706 3.55882 28.4706H24.9118C26.8745 28.4706 28.4706 26.8745 28.4706 24.9118V3.55882C28.4706 1.59613 26.8745 0 24.9118 0Z" fill="#F9F9F9"/>
<path fill-rule="evenodd" clip-rule="evenodd" d="M18 12.6154H15.6667V10.7692C15.6667 10.2597 16.0848 10.3077 16.6 10.3077H17.5333V8H15.6667C14.9241 8 14.2119 8.29176 13.6868 8.81109C13.1617 9.33042 12.8667 10.0348 12.8667 10.7692V12.6154H11V14.9231H12.8667V20H15.6667V14.9231H17.0667L18 12.6154Z" fill="#646464"/>
<path d="M72.4688 24.5163C72.4688 25.5651 72.059 26.5709 71.3297 27.3124C70.6004 28.054 69.6113 28.4706 68.5799 28.4706H48.3576C47.3262 28.4706 46.3371 28.054 45.6078 27.3124C44.8785 26.5709 44.4688 25.5651 44.4688 24.5163V3.95425C44.4688 2.90552 44.8785 1.89974 45.6078 1.15817C46.3371 0.416607 47.3262 0 48.3576 0H68.5799C69.6113 0 70.6004 0.416607 71.3297 1.15817C72.059 1.89974 72.4688 2.90552 72.4688 3.95425V24.5163Z" fill="#F9F9F9"/>
<path d="M63.8769 11.0042C63.4793 11.1894 62.9758 11.3633 62.5246 11.4211C62.9835 11.1349 63.7115 10.5391 63.8769 10C63.4482 10.2648 62.6729 10.5476 62.1672 10.6499C61.7633 10.1999 61.1872 10 60.549 10C59.3229 10 58.4678 11.0918 58.4678 12.3684V13.3158C56.6648 13.3158 54.9068 11.8725 53.8128 10.4737C53.615 10.8262 53.5112 11.2283 53.5122 11.6375C53.5122 12.4992 54.2654 13.3736 54.8617 13.7895C54.498 13.7776 53.8092 13.4858 53.5095 13.3158V13.3428C53.5095 14.464 54.2582 15.2252 55.2728 15.4374C55.0876 15.4909 54.8617 15.6842 53.9927 15.6842C54.2749 16.6008 55.6934 17.0854 56.6648 17.1053C55.9048 17.7244 54.5498 18.0526 53.5095 18.0526C53.3296 18.0526 53.2323 18.0631 53.0587 18.0417C54.0405 18.6954 55.4117 19 56.6648 19C60.7473 19 62.9754 15.7231 62.9754 12.6668C62.9754 12.5664 62.9722 12.2301 62.9673 12.1316C63.4036 11.8085 63.5803 11.4703 63.8769 11.0042Z" fill="#646464"/>
</svg>
